<?xml version="1.0" encoding="UTF-8"?>
<svg id="Capa_2" data-name="Capa 2" xmlns="http://www.w3.org/2000/svg" viewBox="0 0 39.38 41.85">
  <defs>
    <style>
      .cls-1 {
        fill: #f06c52;
      }
    </style>
  </defs>
  <g id="Capa_1-2" data-name="Capa 1">
    <path class="cls-1" d="M2.77,36.46c-.77,0-1.42-.27-1.96-.81-.54-.54-.81-1.19-.81-1.96V6.77c0-.77.27-1.42.81-1.96.54-.54,1.19-.81,1.96-.81h4.13V0h1.79v4h14.77V0h1.67v4h4.1c.77,0,1.42.27,1.96.81.54.54.81,1.19.81,1.96v12.77h-1.54v-4.08H1.54v18.23c0,.31.13.59.38.85.26.26.54.38.85.38h14.35v1.54H2.77ZM30,41.85c-2.13,0-4.01-.64-5.66-1.93s-2.76-2.9-3.33-4.84h1.87c.54,1.49,1.44,2.7,2.71,3.62,1.27.92,2.74,1.38,4.42,1.38,2.11,0,3.91-.74,5.39-2.22,1.48-1.48,2.22-3.28,2.22-5.39,0-2.11-.74-3.91-2.22-5.39-1.48-1.48-3.28-2.22-5.39-2.22-1.22,0-2.39.3-3.51.89-1.12.59-2.08,1.37-2.89,2.34h3.78v1.77h-6.77v-6.77h1.77v3.7c.95-1.1,2.09-1.99,3.42-2.67,1.33-.68,2.73-1.03,4.2-1.03,2.59,0,4.8.92,6.63,2.75,1.83,1.83,2.75,4.05,2.75,6.63,0,2.59-.92,4.8-2.75,6.63-1.83,1.83-4.05,2.75-6.63,2.75Z"/>
  </g>
</svg>