<?xml version="1.0" encoding="UTF-8"?>
<svg id="Capa_2" data-name="Capa 2" xmlns="http://www.w3.org/2000/svg" viewBox="0 0 17.25 17.25">
  <defs>
    <style>
      .cls-1 {
        fill: #fff;
      }
    </style>
  </defs>
  <g id="Capa_1-2" data-name="Capa 1">
    <path class="cls-1" d="M2.92,14.11c.91-.59,1.82-1.05,2.72-1.38.9-.33,1.9-.49,2.98-.49,1.09,0,2.08.16,2.98.49.9.33,1.81.79,2.72,1.38.69-.75,1.22-1.59,1.61-2.5s.58-1.91.58-2.98c0-2.2-.76-4.07-2.29-5.59-1.53-1.53-3.39-2.29-5.59-2.29-2.2,0-4.07.76-5.59,2.29-1.53,1.53-2.29,3.39-2.29,5.59,0,1.07.19,2.06.57,2.98.38.92.92,1.75,1.61,2.5ZM8.62,8.98c-.8,0-1.47-.27-2.02-.81-.55-.54-.83-1.21-.83-2.01s.28-1.47.83-2.02c.55-.55,1.23-.83,2.02-.83.8,0,1.47.28,2.02.83.55.55.83,1.23.83,2.02,0,.8-.28,1.47-.83,2.01-.55.54-1.23.81-2.02.81ZM8.62,17.25c-1.2,0-2.32-.22-3.38-.67-1.05-.45-1.97-1.06-2.74-1.84-.77-.78-1.39-1.7-1.83-2.74-.45-1.05-.67-2.18-.67-3.39s.22-2.32.67-3.37c.45-1.05,1.06-1.96,1.84-2.73.78-.77,1.7-1.39,2.74-1.83,1.05-.45,2.18-.67,3.39-.67s2.32.22,3.37.67c1.05.45,1.96,1.06,2.73,1.83s1.39,1.69,1.83,2.74c.45,1.05.67,2.18.67,3.38s-.22,2.34-.67,3.38c-.45,1.04-1.06,1.95-1.83,2.73-.77.78-1.69,1.4-2.74,1.84-1.05.45-2.18.67-3.38.67Z"/>
  </g>
</svg>