<?xml version="1.0" encoding="UTF-8"?>
<svg id="Capa_2" data-name="Capa 2" xmlns="http://www.w3.org/2000/svg" viewBox="0 0 40 24">
  <defs>
    <style>
      .cls-1 {
        fill: #f06c52;
      }
    </style>
  </defs>
  <g id="Capa_1-2" data-name="Capa 1">
    <path class="cls-1" d="M19.69,19.81h1.07v-1.56c.93-.13,1.73-.5,2.38-1.1.65-.61.98-1.39.98-2.35,0-.83-.33-1.53-1-2.09-.67-.56-1.43-1.02-2.3-1.39v-4.05c.38.07.72.23,1,.48.28.25.48.52.61.83l1.42-.6c-.26-.6-.66-1.09-1.2-1.47-.54-.38-1.15-.64-1.82-.76v-1.56h-1.12v1.55c-.93.09-1.73.42-2.38.97-.65.55-.98,1.28-.98,2.19,0,.85.34,1.57,1.03,2.16s1.46,1.07,2.33,1.43v4.22c-.64-.12-1.16-.37-1.56-.75-.41-.39-.69-.85-.85-1.38l-1.4.6c.27.84.73,1.54,1.4,2.08.67.54,1.47.88,2.41,1.01v1.55ZM20.81,16.69v-3.8c.47.21.88.47,1.24.77.36.3.54.7.54,1.2,0,.57-.17,1-.5,1.26-.33.27-.76.46-1.29.56ZM19.69,10.86c-.44-.22-.86-.48-1.25-.77s-.58-.69-.58-1.18c0-.53.19-.92.57-1.17.38-.25.8-.4,1.27-.47v3.6ZM12,24c-3.34,0-6.18-1.16-8.51-3.49C1.16,18.18,0,15.35,0,12.01S1.16,5.83,3.49,3.5C5.82,1.17,8.66,0,12,0h16c3.34,0,6.18,1.16,8.51,3.49,2.33,2.33,3.49,5.16,3.49,8.5s-1.16,6.18-3.49,8.51c-2.33,2.33-5.16,3.5-8.51,3.5H12Z"/>
  </g>
</svg>