<?xml version="1.0" encoding="UTF-8"?>
<svg id="Capa_2" data-name="Capa 2" xmlns="http://www.w3.org/2000/svg" viewBox="0 0 32.15 35.23">
  <defs>
    <style>
      .cls-1 {
        fill: #f06c52;
      }
    </style>
  </defs>
  <g id="Capa_1-2" data-name="Capa 1">
    <path class="cls-1" d="M3.67,35.23c-1.02,0-1.89-.36-2.6-1.07-.71-.71-1.07-1.58-1.07-2.6v-4.1h6.16V0l2.54,1.77,2.61-1.77,2.61,1.77,2.61-1.77,2.61,1.77,2.62-1.77,2.62,1.77,2.62-1.77,2.62,1.77,2.54-1.77v31.56c0,1.02-.36,1.89-1.07,2.6-.71.71-1.58,1.07-2.6,1.07H3.67ZM28.46,33.69c.59,0,1.08-.2,1.48-.6s.6-.92.6-1.55V2.39H7.77v26.22h18.69v2.94c0,.62.19,1.12.56,1.53.37.4.85.61,1.44.61ZM10.84,9.25v-1.54h10.69v1.54h-10.69ZM10.84,15.6v-1.54h10.69v1.54h-10.69ZM26.15,9.78c-.35,0-.65-.13-.92-.39-.26-.26-.39-.57-.39-.92s.13-.65.39-.92c.26-.26.57-.39.92-.39s.65.13.92.39c.26.26.39.57.39.92s-.13.65-.39.92c-.26.26-.57.39-.92.39ZM26.15,16c-.35,0-.65-.13-.92-.39-.26-.26-.39-.57-.39-.92s.13-.65.39-.92c.26-.26.57-.39.92-.39s.65.13.92.39c.26.26.39.57.39.92s-.13.65-.39.92c-.26.26-.57.39-.92.39Z"/>
  </g>
</svg>