<?xml version="1.0" encoding="UTF-8"?>
<svg id="Capa_2" data-name="Capa 2" xmlns="http://www.w3.org/2000/svg" viewBox="0 0 32.82 31.67">
  <defs>
    <style>
      .cls-1 {
        fill: #f06c52;
      }
    </style>
  </defs>
  <g id="Capa_1-2" data-name="Capa 1">
    <path class="cls-1" d="M29.82,31.67l-11.09-11.09,1.5-1.5,11.09,11.09-1.5,1.5ZM2.89,31.67l-1.5-1.5,13.46-13.46-5.85-5.89-1,1-1.74-1.78v3.67l-1.01.97L0,9.42l1.01-1.01h3.68l-1.86-1.82L6.88,2.5c.44-.41.91-.71,1.41-.88.5-.17,1.06-.26,1.68-.26.59,0,1.15.1,1.66.31.51.21.98.53,1.39.97l-3.66,3.62,2.17,2.17-1.01.97,5.82,5.82,6.25-6.25c-.34-.48-.6-1-.76-1.54-.16-.54-.24-1.14-.24-1.8,0-1.54.55-2.86,1.66-3.96,1.1-1.1,2.42-1.66,3.96-1.66.35,0,.66.02.93.07.27.05.51.14.72.28l-3.83,3.79,3.6,3.6,3.83-3.79c.12.22.21.47.27.76.07.29.1.61.1.96,0,1.54-.55,2.86-1.66,3.96-1.1,1.1-2.42,1.66-3.96,1.66-.65,0-1.21-.06-1.68-.18-.47-.12-.93-.36-1.37-.7L2.89,31.67Z"/>
  </g>
</svg>