<?xml version="1.0" encoding="UTF-8"?>
<svg id="Capa_2" data-name="Capa 2" xmlns="http://www.w3.org/2000/svg" viewBox="0 0 63.84 15.85">
  <defs>
    <style>
      .cls-1 {
        fill: #fff;
      }
    </style>
  </defs>
  <g id="Capa_1-2" data-name="Capa 1">
    <g>
      <path class="cls-1" d="M5.26,12.81h-.79c-.71,0-1.03-.32-1.03-1.13V.24c0-.15-.1-.24-.25-.24H.24c-.15,0-.24.1-.24.24v11.7c0,2.63,1.06,3.78,3.68,3.78h3.19c-.91-.67-1.48-1.67-1.61-2.92"/>
      <path class="cls-1" d="M13.49,15.58c-.15,0-.25-.1-.25-.25v-.79h-.03c-.61.79-1.64,1.3-3.26,1.3-2.11,0-3.95-1.1-3.95-3.63s1.99-3.83,4.93-3.83h2.11c.1,0,.15-.05.15-.15v-.44c0-1.1-.54-1.62-2.43-1.62-1.2,0-2.08.34-2.65.76-.12.1-.24.07-.32-.05l-1.1-1.94c-.07-.15-.05-.27.07-.34,1.01-.71,2.45-1.18,4.42-1.18,3.88,0,5.28,1.32,5.28,4.29v7.6c0,.15-.1.25-.25.25h-2.72ZM13.2,11.63v-.81c0-.1-.05-.15-.15-.15h-1.67c-1.45,0-2.11.42-2.11,1.35,0,.83.59,1.25,1.72,1.25,1.47,0,2.21-.54,2.21-1.64"/>
      <path class="cls-1" d="M20.99,15.58c-.15,0-.25-.1-.29-.25l-4.22-11.38c-.05-.15.02-.25.2-.25h3.09c.17,0,.27.07.32.25l2.31,7.04h.05l2.21-7.04c.05-.17.15-.25.32-.25h3.04c.17,0,.24.1.2.25l-4.22,11.38c-.05.15-.15.25-.29.25h-2.7Z"/>
      <path class="cls-1" d="M35.41,15.58c-.15,0-.24-.1-.24-.25v-.79h-.02c-.61.79-1.64,1.3-3.26,1.3-2.11,0-3.95-1.1-3.95-3.63s1.99-3.83,4.93-3.83h2.11c.1,0,.15-.05.15-.15v-.44c0-1.1-.54-1.62-2.43-1.62-1.2,0-2.08.34-2.65.76-.12.1-.25.07-.32-.05l-1.1-1.94c-.07-.15-.05-.27.07-.34,1.01-.71,2.45-1.18,4.42-1.18,3.88,0,5.28,1.32,5.28,4.29v7.6c0,.15-.1.25-.25.25h-2.72ZM35.12,11.63v-.81c0-.1-.05-.15-.15-.15h-1.67c-1.45,0-2.11.42-2.11,1.35,0,.83.59,1.25,1.72,1.25,1.47,0,2.21-.54,2.21-1.64"/>
      <path class="cls-1" d="M55.2,6.23h1.52c.15,0,.25-.1.25-.25v-2.04c0-.15-.1-.25-.25-.25h-1.52c-.1,0-.15-.05-.15-.15V.37c0-.15-.1-.25-.25-.25h-2.92c-.15,0-.25.1-.25.25v3.19c0,.1-.05.15-.15.15h-2.43c.73.61,1.25,1.47,1.51,2.53h.91c.1,0,.15.05.15.15v5.4c0,2.72,1.03,3.95,3.78,3.95h1.3c.15,0,.25-.1.25-.25v-2.43c0-.15-.1-.25-.25-.25h-.59c-.78,0-1.08-.29-1.08-1.18v-5.25c0-.1.05-.15.15-.15"/>
      <path class="cls-1" d="M46.8,15.58c-.15,0-.24-.1-.24-.25v-6.82c0-1.3-.61-2.16-1.84-2.16s-1.86.86-1.86,2.16v6.82c0,.15-.1.25-.25.25h-2.94c-.15,0-.25-.1-.25-.25V3.95c0-.15.1-.25.25-.25h2.94c.15,0,.25.1.25.25v.83h.02c.54-.74,1.55-1.35,3.07-1.35,2.63,0,4.05,1.82,4.05,4.42v7.48c0,.15-.1.25-.24.25h-2.94Z"/>
      <path class="cls-1" d="M58.25,2.67c-.15,0-.25-.1-.25-.25V.37c0-.15.1-.24.25-.24h2.94c.15,0,.25.1.25.24v2.06c0,.15-.1.25-.25.25h-2.94ZM58.25,15.58c-.15,0-.25-.1-.25-.25V3.95c0-.15.1-.25.25-.25h2.94c.15,0,.25.1.25.25v11.38c0,.15-.1.25-.25.25h-2.94Z"/>
      <path class="cls-1" d="M62.73,9.43c.12,0,.2-.07.2-.18s-.08-.18-.2-.18h-.26s0,0,0,0v.35s0,0,0,0h.26Z"/>
      <path class="cls-1" d="M62.7,8.38c-.08,0-.16,0-.24.02v.38h.28c.3,0,.5.19.5.45,0,.19-.1.34-.26.41l.29.58s0,.03-.01.03h-.31s-.03,0-.03-.02l-.25-.54h-.2s0,0,0,0v.93c.08.02.15.02.24.02.63,0,1.14-.51,1.14-1.14s-.51-1.14-1.14-1.14"/>
    </g>
  </g>
</svg>